<svg viewBox="0 0 24 24" fill="#a855f7" xmlns="http://www.w3.org/2000/svg">
  <path d="M12,2C10.89,2 10,2.89 10,4C10,5.11 10.89,6 12,6C13.11,6 14,5.11 14,4C14,2.89 13.11,2 12,2M16.5,5C15.4,5 14.5,5.9 14.5,7C14.5,8.1 15.4,9 16.5,9C17.6,9 18.5,8.1 18.5,7C18.5,5.9 17.6,5 16.5,5M7.5,5C6.4,5 5.5,5.9 5.5,7C5.5,8.1 6.4,9 7.5,9C8.6,9 9.5,8.1 9.5,7C9.5,5.9 8.6,5 7.5,5M12,8C9.79,8 8,9.79 8,12C8,14.21 9.79,16 12,16C14.21,16 16,14.21 16,12C16,9.79 14.21,8 12,8M12,18C8.69,18 6,20.69 6,24H18C18,20.69 15.31,18 12,18Z" />
</svg>
